<svg width="80" height="80" viewBox="0 0 80 80" fill="none" xmlns="http://www.w3.org/2000/svg">
<path d="M40 0C17.92 0 0 17.7887 0 39.7069C0 61.6251 17.92 79.4138 40 79.4138H60V71.4724H40C22.64 71.4724 8 56.9397 8 39.7069C8 22.4741 22.64 7.94138 40 7.94138C57.36 7.94138 72 22.4741 72 39.7069V45.385C72 48.5218 69.16 51.619 66 51.619C62.84 51.619 60 48.5218 60 45.385V39.7069C60 28.7478 51.04 19.8535 40 19.8535C28.96 19.8535 20 28.7478 20 39.7069C20 50.666 28.96 59.5604 40 59.5604C45.52 59.5604 50.56 57.3368 54.16 53.7234C56.76 57.2574 61.24 59.5604 66 59.5604C73.88 59.5604 80 53.2073 80 45.385V39.7069C80 17.7887 62.08 0 40 0ZM40 51.619C33.36 51.619 28 46.2983 28 39.7069C28 33.1156 33.36 27.7948 40 27.7948C46.64 27.7948 52 33.1156 52 39.7069C52 46.2983 46.64 51.619 40 51.619Z" fill="#DFA80E"/>
</svg>
