<svg width="80" height="78" viewBox="0 0 80 78" fill="none" xmlns="http://www.w3.org/2000/svg">
<path d="M40 0C18 0 0 18 0 40C0 54.7969 8.40625 68 20.4063 74.7969C22.7969 76 25.2031 77.2031 28 78L37.5938 51.5938C34.7969 50.7969 32.4062 49.2031 30.7969 47.2031C28.7969 45.2031 28 42.7969 28 40C28 33.2031 33.2031 28 40 28C46.7969 28 52 33.2031 52 40C52 42.7969 51.2031 45.2031 49.5938 47.2031C48 49.2031 45.5938 51.2031 42.7969 51.5938L52.4063 78C54.7969 77.2031 57.5938 76 59.5938 74.7969C72 68 80 54.7969 80 40C80 18 62 0 40 0ZM56.7969 67.2031L52.4063 55.5938C57.2031 52 60 46.4062 60 40C60 28.7969 51.2031 20 40 20C28.7969 20 20 28.7969 20 40C20 46.4062 22.7969 52 27.5938 55.5938L23.2031 67.2031C14 61.5938 8 51.5938 8 40C8 22.4063 22.4063 8 40 8C57.5938 8 72 22.4063 72 40C72 51.5938 66 61.5938 56.7969 67.2031Z" fill="#DFA80E"/>
</svg>
