<svg width="96" height="96" viewBox="0 0 96 96" fill="none" xmlns="http://www.w3.org/2000/svg">
<g clip-path="url(#clip0_19_222)">
<path d="M48 0C32.52 0 20 12.52 20 28C20 34.96 22 41.48 25.64 47.36C29.44 53.52 34.44 58.8 38.28 64.96C40.16 67.96 41.52 70.76 42.96 74C44 76.2 44.84 80 48 80C51.16 80 52 76.2 53 74C54.48 70.76 55.8 67.96 57.68 64.96C61.52 58.84 66.52 53.56 70.32 47.36C74 41.48 76 34.96 76 28C76 12.52 63.48 0 48 0ZM48 39C42.48 39 38 34.52 38 29C38 23.48 42.48 19 48 19C53.52 19 58 23.48 58 29C58 34.52 53.52 39 48 39Z" fill="#DFA80E"/>
</g>
<defs>
<clipPath id="clip0_19_222">
<rect width="96" height="96" fill="white"/>
</clipPath>
</defs>
</svg>
