<svg width="80" height="80" viewBox="0 0 80 80" fill="none" xmlns="http://www.w3.org/2000/svg">
<path d="M40 0C17.9375 0 0 17.9375 0 40C0 62.0625 17.9375 80 40 80C62.0625 80 80 62.0625 80 40C80 17.9375 62.0625 0 40 0ZM40 8C57.6406 8 72 22.3594 72 40C72 57.6406 57.6406 72 40 72C22.3594 72 8 57.6406 8 40C8 22.3594 22.3594 8 40 8ZM20.625 24.625L18.75 32.875H25.375C30.5156 32.875 32 30.5156 32 28.25C32 26.6563 31.1094 24.625 27 24.625H20.625ZM37.625 24.625L35.75 32.875H42.5C47.6406 32.875 49.125 30.5156 49.125 28.25C49.125 26.6563 48.0938 24.625 44 24.625H37.625ZM53.25 32L51.375 40.375H57.875C63.0156 40.375 64.5 37.8906 64.5 35.625C64.5 34.0313 63.5938 32 59.5 32H53.25ZM18.25 37.125L16.625 45.5H23.125C28.2656 45.5 29.75 43 29.75 40.75C29.75 39.1563 28.7344 37.125 24.625 37.125H18.25ZM35.375 37.125L33.625 45.5H40.125C45.2656 45.5 46.75 43 46.75 40.75C46.75 39.1563 45.7188 37.125 41.625 37.125H35.375ZM50.75 45.125L48.875 53.375H55.5C60.6406 53.375 62 50.875 62 48.625C62 47.0313 61.0938 45.125 57 45.125H50.75ZM32.875 50.25L31.125 58.5H37.75C42.8906 58.5 44.25 56.0156 44.25 53.75C44.25 52.1406 43.3438 50.25 39.25 50.25H32.875Z" fill="#DFA80E"/>
</svg>
