<svg width="30" height="32" viewBox="0 0 30 32" fill="none" xmlns="http://www.w3.org/2000/svg">
<path d="M26.4693 17.5667C26.5335 17.0667 26.5656 16.55 26.5656 16C26.5656 15.4667 26.5335 14.9333 26.4532 14.4333L29.7141 11.8C30.0032 11.5667 30.0835 11.1167 29.9068 10.7833L26.8227 5.25C26.6299 4.88333 26.2283 4.76667 25.8749 4.88333L22.0358 6.48333C21.2326 5.85 20.3812 5.31667 19.4335 4.91667L18.8552 0.683333C18.791 0.283333 18.4697 0 18.0842 0H11.9158C11.5303 0 11.2251 0.283333 11.1608 0.683333L10.5826 4.91667C9.63483 5.31667 8.7674 5.86667 7.9803 6.48333L4.14114 4.88333C3.78775 4.75 10.5826 10 3.1934 5.25L0.125295 10.7833C-0.0674657 11.1333 -0.0032123 11.5667 0.318056 11.8L3.57893 14.4333C3.49861 14.9333 3.43436 15.4833 3.43436 16C3.43436 16.5167 3.46648 17.0667 3.5468 17.5667L0.285929 20.2C-0.00321227 20.4333 -0.0835291 20.8833 0.0931683 21.2167L3.17734 26.75C3.3701 27.1167 3.77169 27.2333 4.12508 27.1167L7.96423 25.5167C8.7674 26.15 9.61876 26.6833 10.5665 27.0833L11.1448 31.3167C11.2251 31.7167 11.5303 32 11.9158 32H18.0842C18.4697 32 18.791 31.7167 18.8392 31.3167L19.4174 27.0833C20.3652 26.6833 21.2326 26.15 22.0197 25.5167L25.8589 27.1167C26.2123 27.25 26.6138 27.1167 26.8066 26.75L29.8908 21.2167C30.0835 20.85 30.0032 20.4333 29.698 20.2L26.4693 17.5667ZM15 22C11.8194 22 9.21718 19.3 9.21718 16C9.21718 12.7 11.8194 10 15 10C18.1806 10 20.7828 12.7 20.7828 16C20.7828 19.3 18.1806 22 15 22Z" fill="#DFA80E"/>
</svg>
